<svg width="1959" height="196" viewBox="0 0 1959 196" fill="none" xmlns="http://www.w3.org/2000/svg">
<g filter="url(#filter0_bd_10_4958)">
<mask id="path-1-inside-1_10_4958" fill="white">
<path fill-rule="evenodd" clip-rule="evenodd" d="M859 24H19V151H859L884 176H1074L1099 151H1939V24H1099H1074H884H859Z"/>
</mask>
<path fill-rule="evenodd" clip-rule="evenodd" d="M859 24H19V151H859L884 176H1074L1099 151H1939V24H1099H1074H884H859Z" fill="url(#paint0_linear_10_4958)" shape-rendering="crispEdges"/>
<path d="M19 24V23H18V24H19ZM19 151H18V152H19V151ZM859 151L859.707 150.293L859.414 150H859V151ZM884 176L883.293 176.707L883.586 177H884V176ZM1074 176V177H1074.41L1074.71 176.707L1074 176ZM1099 151V150H1098.59L1098.29 150.293L1099 151ZM1939 151V152H1940V151H1939ZM1939 24H1940V23H1939V24ZM19 25H859V23H19V25ZM20 151V24H18V151H20ZM859 150H19V152H859V150ZM858.293 151.707L883.293 176.707L884.707 175.293L859.707 150.293L858.293 151.707ZM884 177H1074V175H884V177ZM1074.71 176.707L1099.71 151.707L1098.29 150.293L1073.29 175.293L1074.71 176.707ZM1099 152H1939V150H1099V152ZM1940 151V24H1938V151H1940ZM1939 23H1099V25H1939V23ZM1099 23H1074V25H1099V23ZM1074 23H884V25H1074V23ZM884 23H859V25H884V23Z" fill="url(#paint1_radial_10_4958)" fill-opacity="0.65" mask="url(#path-1-inside-1_10_4958)"/>
<path d="M19 24V23H18V24H19ZM19 151H18V152H19V151ZM859 151L859.707 150.293L859.414 150H859V151ZM884 176L883.293 176.707L883.586 177H884V176ZM1074 176V177H1074.41L1074.71 176.707L1074 176ZM1099 151V150H1098.59L1098.29 150.293L1099 151ZM1939 151V152H1940V151H1939ZM1939 24H1940V23H1939V24ZM19 25H859V23H19V25ZM20 151V24H18V151H20ZM859 150H19V152H859V150ZM858.293 151.707L883.293 176.707L884.707 175.293L859.707 150.293L858.293 151.707ZM884 177H1074V175H884V177ZM1074.71 176.707L1099.71 151.707L1098.29 150.293L1073.29 175.293L1074.71 176.707ZM1099 152H1939V150H1099V152ZM1940 151V24H1938V151H1940ZM1939 23H1099V25H1939V23ZM1099 23H1074V25H1099V23ZM1074 23H884V25H1074V23ZM884 23H859V25H884V23Z" fill="url(#paint2_radial_10_4958)" fill-opacity="0.65" mask="url(#path-1-inside-1_10_4958)"/>
</g>
<defs>
<filter id="filter0_bd_10_4958" x="-11" y="-6" width="1980" height="212" filterUnits="userSpaceOnUse" color-interpolation-filters="sRGB">
<feFlood flood-opacity="0" result="BackgroundImageFix"/>
<feGaussianBlur in="BackgroundImage" stdDeviation="15"/>
<feComposite in2="SourceAlpha" operator="in" result="effect1_backgroundBlur_10_4958"/>
<feColorMatrix in="SourceAlpha" type="matrix" values="0 0 0 0 0 0 0 0 0 0 0 0 0 0 0 0 0 0 127 0" result="hardAlpha"/>
<feOffset dx="5"/>
<feGaussianBlur stdDeviation="12"/>
<feComposite in2="hardAlpha" operator="out"/>
<feColorMatrix type="matrix" values="0 0 0 0 0 0 0 0 0 0 0 0 0 0 0 0 0 0 0.75 0"/>
<feBlend mode="normal" in2="effect1_backgroundBlur_10_4958" result="effect2_dropShadow_10_4958"/>
<feBlend mode="normal" in="SourceGraphic" in2="effect2_dropShadow_10_4958" result="shape"/>
</filter>
<linearGradient id="paint0_linear_10_4958" x1="999.755" y1="24" x2="999.755" y2="161.907" gradientUnits="userSpaceOnUse">
<stop/>
<stop offset="1" stop-opacity="0.1"/>
</linearGradient>
<radialGradient id="paint1_radial_10_4958" cx="0" cy="0" r="1" gradientUnits="userSpaceOnUse" gradientTransform="translate(864.5 185.563) rotate(-49.1055) scale(103.869 60.7483)">
<stop stop-color="#B2F6FF"/>
<stop offset="1" stop-color="#26A69A" stop-opacity="0"/>
</radialGradient>
<radialGradient id="paint2_radial_10_4958" cx="0" cy="0" r="1" gradientUnits="userSpaceOnUse" gradientTransform="translate(1087 190.596) rotate(-124.967) scale(170.128 49.5385)">
<stop stop-color="#B2F6FF"/>
<stop offset="1" stop-color="#26A69A" stop-opacity="0"/>
</radialGradient>
</defs>
</svg>
